{
  "accessors": [
    {
      "bufferView": 3,
      "componentType": 5126,
      "count": 59,
      "max": [
        -13.028700828552246,
        28.6407470703125,
        2.958710193634033
      ],
      "min": [
        -19.64386749267578,
        27.113859176635742,
        -2.727592706680298
      ],
      "type": "VEC3"
    },
    {
      "bufferView": 3,
      "byteOffset": 708,
      "componentType": 5126,
      "count": 59,
      "max": [
        0.9999823570251465,
        1.0,
        0.972544252872467
      ],
      "min": [
        -0.9991098642349243,
        -1.0,
        -0.9999936819076538
      ],
      "type": "VEC3"
    },
    {
      "bufferView": 2,
      "componentType": 5126,
      "count": 59,
      "max": [
        0.942348301410675,
        0.994092583656311
      ],
      "min": [
        0.6512843370437622,
        0.5161721110343933
      ],
      "type": "VEC2"
    },
    {
      "bufferView": 1,
      "componentType": 5125,
      "count": 105,
      "type": "SCALAR"
    },
    {
      "bufferView": 3,
      "byteOffset": 1416,
      "componentType": 5126,
      "count": 4,
      "max": [
        -14.463793754577637,
        28.431652069091797,
        -2.1771159172058105
      ],
      "min": [
        -15.907800674438477,
        27.36398696899414,
        -3.7084412574768066
      ],
      "type": "VEC3"
    },
    {
      "bufferView": 3,
      "byteOffset": 1464,
      "componentType": 5126,
      "count": 4,
      "max": [
        -0.28115689754486084,
        0.4808501899242401,
        0.8305022120475769
      ],
      "min": [
        -0.28115689754486084,
        0.4808501899242401,
        0.8305022120475769
      ],
      "type": "VEC3"
    },
    {
      "bufferView": 2,
      "byteOffset": 472,
      "componentType": 5126,
      "count": 4,
      "max": [
        0.9965864419937134,
        0.5519607067108154
      ],
      "min": [
        0.850284218788147,
        0.40565845370292664
      ],
      "type": "VEC2"
    },
    {
      "bufferView": 2,
      "byteOffset": 504,
      "componentType": 5126,
      "count": 4,
      "max": [
        0.9965864419937134,
        0.5519607067108154
      ],
      "min": [
        0.850284218788147,
        0.40565845370292664
      ],
      "type": "VEC2"
    },
    {
      "bufferView": 1,
      "byteOffset": 420,
      "componentType": 5125,
      "count": 6,
      "type": "SCALAR"
    },
    {
      "bufferView": 3,
      "byteOffset": 1512,
      "componentType": 5126,
      "count": 617,
      "max": [
        16.243690490722656,
        35.470672607421875,
        5.486541748046875
      ],
      "min": [
        -16.243690490722656,
        -6.854534149169922e-07,
        -4.392521858215332
      ],
      "type": "VEC3"
    },
    {
      "bufferView": 3,
      "byteOffset": 8916,
      "componentType": 5126,
      "count": 617,
      "max": [
        0.9735609889030457,
        0.9523546695709229,
        0.9897121787071228
      ],
      "min": [
        -0.9733741283416748,
        -1.0,
        -0.997096836566925
      ],
      "type": "VEC3"
    },
    {
      "bufferView": 2,
      "byteOffset": 536,
      "componentType": 5126,
      "count": 617,
      "max": [
        0.9945605993270874,
        0.9997559189796448
      ],
      "min": [
        0.0026741623878479004,
        0.004044041037559509
      ],
      "type": "VEC2"
    },
    {
      "bufferView": 1,
      "byteOffset": 444,
      "componentType": 5125,
      "count": 657,
      "type": "SCALAR"
    },
    {
      "bufferView": 5,
      "componentType": 5126,
      "count": 25,
      "max": [
        1.0,
        1.0,
        1.0,
        0.0,
        0.9994044303894043,
        1.0,
        0.9974790215492249,
        0.0,
        0.9755523204803467,
        0.9985979795455933,
        1.0,
        0.0,
        28.166311264038086,
        28.278303146362305,
        2.343186378479004,
        1.0
      ],
      "min": [
        -1.380163325848116e-07,
        -1.0,
        -1.0,
        0.0,
        -0.9985979795455933,
        -0.9998449683189392,
        -0.07380396127700806,
        0.0,
        -0.9963598847389221,
        -0.6572127342224121,
        -0.9997788667678833,
        0.0,
        -32.889869689941406,
        -31.716859817504883,
        -20.56243324279785,
        1.0
      ],
      "type": "MAT4"
    },
    {
      "bufferView": 0,
      "componentType": 5123,
      "count": 59,
      "type": "VEC4"
    },
    {
      "bufferView": 4,
      "componentType": 5126,
      "count": 59,
      "max": [
        1.0,
        0.0,
        0.0,
        0.0
      ],
      "min": [
        1.0,
        0.0,
        0.0,
        0.0
      ],
      "type": "VEC4"
    },
    {
      "bufferView": 0,
      "byteOffset": 472,
      "componentType": 5123,
      "count": 4,
      "type": "VEC4"
    },
    {
      "bufferView": 4,
      "byteOffset": 944,
      "componentType": 5126,
      "count": 4,
      "max": [
        1.0,
        0.0,
        0.0,
        0.0
      ],
      "min": [
        1.0,
        0.0,
        0.0,
        0.0
      ],
      "type": "VEC4"
    },
    {
      "bufferView": 0,
      "byteOffset": 504,
      "componentType": 5123,
      "count": 617,
      "type": "VEC4"
    },
    {
      "bufferView": 4,
      "byteOffset": 1008,
      "componentType": 5126,
      "count": 617,
      "max": [
        1.0,
        0.49215686321258545,
        0.20263542234897614,
        0.015244871377944946
      ],
      "min": [
        0.4227541387081146,
        0.0,
        0.0,
        0.0
      ],
      "type": "VEC4"
    }
  ],
  "asset": {
    "extras": {
      "author": "the_regressor (https://sketchfab.com/the-regressor)",
      "license": "SKETCHFAB Standard (https://sketchfab.com/licenses)",
      "source": "https://sketchfab.com/3d-models/dva-256fes-68073c182c4043fd9bb95ef6d705d7db",
      "title": "D.va (256fes)"
    },
    "generator": "Sketchfab-15.49.0",
    "version": "2.0"
  },
  "bufferViews": [
    {
      "buffer": 0,
      "byteLength": 5440,
      "byteStride": 8,
      "name": "shortBufferViews",
      "target": 34962
    },
    {
      "buffer": 0,
      "byteLength": 3072,
      "byteOffset": 5440,
      "name": "floatBufferViews",
      "target": 34963
    },
    {
      "buffer": 0,
      "byteLength": 5472,
      "byteOffset": 8512,
      "byteStride": 8,
      "name": "floatBufferViews",
      "target": 34962
    },
    {
      "buffer": 0,
      "byteLength": 16320,
      "byteOffset": 13984,
      "byteStride": 12,
      "name": "floatBufferViews",
      "target": 34962
    },
    {
      "buffer": 0,
      "byteLength": 10880,
      "byteOffset": 30304,
      "byteStride": 16,
      "name": "floatBufferViews",
      "target": 34962
    },
    {
      "buffer": 0,
      "byteLength": 1600,
      "byteOffset": 41184,
      "name": "floatBufferViews"
    }
  ],
  "buffers": [
    {
      "byteLength": 42784,
      "uri": "scene.bin"
    }
  ],
  "extensionsUsed": [
    "KHR_materials_unlit"
  ],
  "images": [
    {
      "uri": "textures/Dva_MAT_baseColor.png"
    },
    {
      "uri": "textures/Alpha_MAT_baseColor.png"
    }
  ],
  "materials": [
    {
      "doubleSided": true,
      "extensions": {
        "KHR_materials_unlit": {}
      },
      "name": "Dva_MAT",
      "pbrMetallicRoughness": {
        "baseColorTexture": {
          "index": 0
        },
        "metallicFactor": 0.0
      }
    },
    {
      "alphaMode": "BLEND",
      "doubleSided": true,
      "extensions": {
        "KHR_materials_unlit": {}
      },
      "name": "Alpha_MAT",
      "pbrMetallicRoughness": {
        "baseColorTexture": {
          "index": 1
        },
        "metallicFactor": 0.0
      }
    },
    {
      "doubleSided": true,
      "extensions": {
        "KHR_materials_unlit": {}
      },
      "name": "Dva_MAT_0",
      "pbrMetallicRoughness": {
        "baseColorTexture": {
          "index": 0
        },
        "metallicFactor": 0.0
      }
    }
  ],
  "meshes": [
    {
      "name": "blaster_GEO_Dva_MAT_0",
      "primitives": [
        {
          "attributes": {
            "JOINTS_0": 14,
            "NORMAL": 1,
            "POSITION": 0,
            "TEXCOORD_0": 2,
            "WEIGHTS_0": 15
          },
          "indices": 3,
          "material": 0,
          "mode": 4
        }
      ]
    },
    {
      "name": "Charm_GEO_Alpha_MAT_0",
      "primitives": [
        {
          "attributes": {
            "JOINTS_0": 16,
            "NORMAL": 5,
            "POSITION": 4,
            "TEXCOORD_0": 6,
            "TEXCOORD_1": 6,
            "TEXCOORD_2": 7,
            "WEIGHTS_0": 17
          },
          "indices": 8,
          "material": 1,
          "mode": 4
        }
      ]
    },
    {
      "name": "body_GEO_Dva_MAT_0",
      "primitives": [
        {
          "attributes": {
            "JOINTS_0": 18,
            "NORMAL": 10,
            "POSITION": 9,
            "TEXCOORD_0": 11,
            "WEIGHTS_0": 19
          },
          "indices": 12,
          "material": 2,
          "mode": 4
        }
      ]
    }
  ],
  "nodes": [
    {
      "children": [
        1
      ],
      "matrix": [
        1.0,
        0.0,
        0.0,
        0.0,
        0.0,
        2.220446049250313e-16,
        -1.0,
        0.0,
        0.0,
        1.0,
        2.220446049250313e-16,
        0.0,
        0.0,
        0.0,
        0.0,
        1.0
      ],
      "name": "Sketchfab_model"
    },
    {
      "children": [
        2
      ],
      "matrix": [
        1.0,
        0.0,
        0.0,
        0.0,
        0.0,
        0.0,
        1.0,
        0.0,
        0.0,
        -1.0,
        0.0,
        0.0,
        0.0,
        0.0,
        0.0,
        1.0
      ],
      "name": "Dva.fbx"
    },
    {
      "children": [
        3
      ],
      "name": "RootNode"
    },
    {
      "children": [
        4,
        6,
        8,
        10,
        5,
        7,
        9
      ],
      "name": "Object_3"
    },
    {
      "children": [
        11
      ],
      "name": "_rootJoint"
    },
    {
      "matrix": [
        1.0,
        7.395570986446986e-32,
        3.944304526105059e-31,
        0.0,
        -7.395570986446986e-32,
        1.0,
        0.0,
        0.0,
        -3.944304526105059e-31,
        -2.91703841149741e-62,
        1.0,
        0.0,
        0.0,
        -3.552713678800501e-15,
        2.220446049250313e-16,
        1.0
      ],
      "name": "Object_5"
    },
    {
      "mesh": 0,
      "name": "Object_6",
      "skin": 0
    },
    {
      "matrix": [
        1.0,
        7.395570986446986e-32,
        3.944304526105059e-31,
        0.0,
        -7.395570986446986e-32,
        1.0,
        0.0,
        0.0,
        -3.944304526105059e-31,
        -2.91703841149741e-62,
        1.0,
        0.0,
        0.0,
        -3.552713678800501e-15,
        2.220446049250313e-16,
        1.0
      ],
      "name": "Object_7"
    },
    {
      "mesh": 1,
      "name": "Object_8",
      "skin": 0
    },
    {
      "matrix": [
        1.0,
        3.774822690998982e-32,
        0.0,
        0.0,
        -3.774822690998982e-32,
        1.0,
        0.0,
        0.0,
        0.0,
        0.0,
        1.0,
        0.0,
        -2.2186712959340957e-31,
        0.0,
        2.220446049250313e-16,
        1.0
      ],
      "name": "Object_9"
    },
    {
      "mesh": 2,
      "name": "Object_10",
      "skin": 0
    },
    {
      "children": [
        12
      ],
      "name": "root_00"
    },
    {
      "children": [
        13,
        27,
        31
      ],
      "name": "hip_jnt_02",
      "rotation": [
        0.022262994199991226,
        -0.022262994199991226,
        0.7067562341690063,
        0.7067562341690063
      ],
      "translation": [
        0.0,
        21.4446964263916,
        -0.08423755317926407
      ]
    },
    {
      "children": [
        14
      ],
      "name": "spine_jnt_01_01",
      "rotation": [
        0.9979010820388794,
        -7.58596222464949e-17,
        -0.06475672870874405,
        -1.1689965232527643e-15
      ],
      "translation": [
        1.7071640491485596,
        -6.674838794138989e-16,
        0.03166956827044487
      ]
    },
    {
      "children": [
        15,
        19,
        24
      ],
      "name": "spine_jnt_02_03",
      "rotation": [
        -0.05228767916560173,
        -0.03269854933023453,
        -0.00224745599552989,
        0.9980940818786621
      ],
      "translation": [
        1.9249999523162842,
        -8.540140572802987e-14,
        0.09129153192043304
      ]
    },
    {
      "children": [
        16
      ],
      "name": "L_clavic_jnt_04",
      "rotation": [
        0.06009684503078461,
        0.9504508376121521,
        0.300528347492218,
        -0.05210106074810028
      ],
      "translation": [
        2.9872453212738037,
        0.3074930012226105,
        -1.7210935354232788
      ]
    },
    {
      "children": [
        17
      ],
      "name": "L_shldr_jnt_05",
      "rotation": [
        0.5878521203994751,
        0.3948293924331665,
        0.3185591399669647,
        0.6301267743110657
      ],
      "translation": [
        0.30048495531082153,
        2.6322689056396484,
        -0.07172135263681412
      ]
    },
    {
      "children": [
        18
      ],
      "name": "L_elbow_jnt_06",
      "rotation": [
        0.009022493846714497,
        -0.7929872274398804,
        0.007296889089047909,
        0.6091277003288269
      ],
      "translation": [
        5.224999904632568,
        -1.743182110658381e-05,
        4.1518993384670466e-05
      ]
    },
    {
      "name": "L_wrist_jnt_07",
      "rotation": [
        0.08855413645505905,
        -0.21912212669849396,
        0.3098314702510834,
        0.9209496974945068
      ],
      "translation": [
        5.224999904632568,
        -1.635387343412731e-05,
        2.8256657969905064e-05
      ]
    },
    {
      "children": [
        20
      ],
      "name": "R_clavic_jnt_08",
      "rotation": [
        -0.3974860608577728,
        0.05012734606862068,
        0.07920171320438385,
        0.9128084182739258
      ],
      "translation": [
        3.0109775066375732,
        -0.5994926691055298,
        -1.6277353763580322
      ]
    },
    {
      "children": [
        21
      ],
      "name": "R_shldr_jnt_09",
      "rotation": [
        0.1074013039469719,
        -0.35669586062431335,
        0.2100517898797989,
        0.9039420485496521
      ],
      "translation": [
        -0.3004748523235321,
        -2.6322829723358154,
        0.07171714305877686
      ]
    },
    {
      "children": [
        22
      ],
      "name": "R_elbow_jnt_010",
      "rotation": [
        0.007983479648828506,
        -0.781110942363739,
        0.006712161935865879,
        0.6243053078651428
      ],
      "translation": [
        -5.2249555587768555,
        -7.430601272062631e-06,
        -8.391497249249369e-05
      ]
    },
    {
      "children": [
        23
      ],
      "name": "R_wrist_jnt_011",
      "rotation": [
        -0.1777074933052063,
        0.39150652289390564,
        0.39196938276290894,
        0.8133281469345093
      ],
      "translation": [
        -5.224969387054443,
        3.293260306236334e-05,
        3.3425614674342796e-05
      ]
    },
    {
      "name": "R_wrist_jnt_011_0"
    },
    {
      "children": [
        25
      ],
      "name": "neck_jnt_01_012",
      "rotation": [
        0.0657426118850708,
        0.06141432374715805,
        -0.0014937067171558738,
        0.9959438443183899
      ],
      "translation": [
        4.968107223510742,
        0.058287374675273895,
        -0.18902097642421722
      ]
    },
    {
      "children": [
        26
      ],
      "name": "head_jnt_013",
      "rotation": [
        0.9999496340751648,
        -6.282654466277469e-17,
        -0.010036871768534184,
        -6.27816331230267e-15
      ],
      "translation": [
        2.7835445404052734,
        -4.64628335805628e-14,
        0.02081729657948017
      ]
    },
    {
      "name": "hair_jnt_014",
      "rotation": [
        -0.0008292673737742007,
        -0.15275873243808746,
        -0.4065195918083191,
        0.9007807374000549
      ],
      "translation": [
        -1.272757649421692,
        6.364908600176022e-13,
        -1.9414141178131104
      ]
    },
    {
      "children": [
        28
      ],
      "name": "L_hip_015",
      "rotation": [
        0.18493862450122833,
        0.6533723473548889,
        0.19926972687244415,
        0.7065365314483643
      ],
      "translation": [
        -1.0421472787857056,
        -1.8700000047683716,
        0.05993518978357315
      ]
    },
    {
      "children": [
        29
      ],
      "name": "L_knee_016",
      "rotation": [
        0.5228399038314819,
        -0.48853373527526855,
        -0.5029647946357727,
        -0.4847676157951355
      ],
      "translation": [
        0.10714884102344513,
        -0.21534158289432526,
        -8.800000190734863
      ]
    },
    {
      "children": [
        30
      ],
      "name": "L_ankle_017",
      "rotation": [
        -0.020329933613538742,
        -0.046473730355501175,
        0.5587954521179199,
        0.8277528285980225
      ],
      "translation": [
        9.497855186462402,
        0.04378766939043999,
        -0.009600062854588032
      ]
    },
    {
      "name": "L_ball_018",
      "rotation": [
        -0.00030412524938583374,
        -0.0012166236992925406,
        0.14431172609329224,
        0.9895314574241638
      ],
      "translation": [
        2.5748424530029297,
        -0.27519869804382324,
        -3.574784912530049e-11
      ]
    },
    {
      "children": [
        32
      ],
      "name": "R_hip_019",
      "rotation": [
        0.6523392796516418,
        -0.022422093898057938,
        -0.07084649056196213,
        0.7542754411697388
      ],
      "translation": [
        -1.042202115058899,
        1.8700000047683716,
        0.05993864685297012
      ]
    },
    {
      "children": [
        33
      ],
      "name": "R_knee_020",
      "rotation": [
        6.590754754737462e-20,
        -1.7334710211318252e-18,
        0.037993114441633224,
        0.9992780089378357
      ],
      "translation": [
        -8.800000190734863,
        -0.10729207098484039,
        8.881784197001252e-16
      ]
    },
    {
      "children": [
        34
      ],
      "name": "R_ankle_021",
      "rotation": [
        -0.03461611643433571,
        0.05834237113595009,
        -0.5371845960617065,
        0.8407321572303772
      ],
      "translation": [
        -9.500463485717773,
        0.04359574615955353,
        9.558761782102465e-09
      ]
    },
    {
      "name": "R_ball_022",
      "rotation": [
        6.277505182339382e-09,
        4.5811276550011826e-08,
        -0.13576112687587738,
        0.9907416105270386
      ],
      "translation": [
        -2.574838638305664,
        -0.27519646286964417,
        5.928280444322809e-08
      ]
    }
  ],
  "samplers": [
    {
      "magFilter": 9728,
      "minFilter": 9728,
      "wrapS": 10497,
      "wrapT": 10497
    }
  ],
  "scene": 0,
  "scenes": [
    {
      "name": "Sketchfab_Scene",
      "nodes": [
        0
      ]
    }
  ],
  "skins": [
    {
      "inverseBindMatrices": 13,
      "joints": [
        4,
        11,
        12,
        13,
        14,
        15,
        16,
        17,
        18,
        19,
        20,
        21,
        22,
        23,
        24,
        25,
        26,
        27,
        28,
        29,
        30,
        31,
        32,
        33,
        34
      ],
      "skeleton": 4
    }
  ],
  "textures": [
    {
      "sampler": 0,
      "source": 0
    },
    {
      "sampler": 0,
      "source": 1
    }
  ]
}
